# 3ds Max Wavefront OBJ Exporter v0.97b - (c)2007 guruware
# File Created: 18.10.2017 23:33:08

mtllib 873252.mtl

#
# object Box001
#

v  -916.3163 0.0000 -961.9944
v  -916.3163 0.0000 211.2696
v  2131.6919 0.0000 211.2696
v  2131.6919 0.0000 -961.9944
v  2131.6919 -616.2543 211.2696
v  -916.3163 -616.2543 211.2696
v  -916.3163 -616.2543 -961.9944
v  2131.6919 -616.2543 -961.9944
# 8 vertices

vn -0.5774 0.5774 -0.5774
vn -0.5774 0.5774 0.5774
vn 0.5774 0.5774 0.5774
vn 0.5774 0.5774 -0.5774
vn 0.5774 -0.5774 0.5774
vn -0.5774 -0.5774 0.5774
vn -0.5774 -0.5774 -0.5774
vn 0.5774 -0.5774 -0.5774
# 8 vertex normals

vt 0.0000 1.0000 0.0000
vt 0.0000 0.0000 0.0000
vt 1.0000 0.0000 0.0000
vt 1.0000 1.0000 0.0000
# 4 texture coords

o Box001
g Box001
usemtl 02___Default
s 2
f 1/1/1 2/2/2 3/3/3 4/4/4 
s 4
f 5/2/5 6/3/6 7/4/7 8/1/8 
s 8
f 3/3/3 2/2/2 6/1/6 5/4/5 
s 16
f 4/3/4 3/2/3 5/1/5 8/4/8 
s 32
f 1/3/1 4/2/4 8/1/8 7/4/7 
s 64
f 2/3/2 1/2/1 7/1/7 6/4/6 
# 6 polygons

#
# object Plane003
#

v  560.8887 -22.8956 548.4769
v  560.8887 -729.8956 548.4767
v  1817.8887 -729.8956 548.4767
v  1817.8887 -22.8956 548.4769
# 4 vertices

vn 0.0000 -0.0000 1.0000
# 1 vertex normals

vt 0.0000 1.0000 0.0000
vt 0.0000 0.0000 0.0000
vt 1.0000 0.0000 0.0000
vt 1.0000 1.0000 0.0000
# 4 texture coords

o Plane003
g Plane003
usemtl Material__27
s 1
f 9/5/9 10/6/9 11/7/9 12/8/9 
# 1 polygons

