# 3ds Max Wavefront OBJ Exporter v0.97b - (c)2007 guruware
# File Created: 14.10.2017 20:46:59

mtllib 873455.mtl

#
# object Plane001
#

v  -70.4253 204.2065 -259.1703
v  -77.7289 2.7389 -259.1703
v  73.3718 -2.7389 -259.1703
v  80.6755 198.7288 -259.1703
# 4 vertices

vn 0.0138 0.9999 0.0000
# 1 vertex normals

vt 0.0000 1.0000 0.0000
vt 0.0000 0.0000 0.0000
vt 1.0000 0.0000 0.0000
vt 1.0000 1.0000 0.0000
# 4 texture coords

o Plane001
g Plane001
usemtl Material__27
s 1
f 1/1/1 2/2/1 3/3/1 4/4/1 
# 1 polygons

#
# object Plane002
#

v  -273.4635 206.4906 81.2852
v  -273.4635 -13.4000 81.2852
v  -273.4635 -13.4000 -83.6328
v  -273.4635 206.4906 -83.6328
# 4 vertices

vn 1.0000 -0.0000 -0.0000
# 1 vertex normals

vt 0.0000 1.0000 0.0000
vt 0.0000 0.0000 0.0000
vt 1.0000 0.0000 0.0000
vt 1.0000 1.0000 0.0000
# 4 texture coords

o Plane002
g Plane002
usemtl Material__28
s 1
f 5/5/2 6/6/2 7/7/2 8/8/2 
# 1 polygons

#
# object Cylinder001
#

v  2.2382 12.1459 -5.0299
v  1.5010 12.1459 -5.7406
v  2.2951 17.2843 -5.5273
v  3.3803 17.3111 -4.7354
v  -0.0051 12.1459 -6.1643
v  -0.0051 17.2825 -6.2810
v  -0.0051 12.1459 -4.4172
v  1.5010 12.1459 -4.5664
v  2.3325 17.3094 -4.0148
v  -0.0051 17.2885 -3.6248
v  3.7958 27.3109 -4.9704
v  4.0777 53.6592 -3.7893
v  5.9989 53.6592 -2.7860
v  5.1284 27.3095 -4.1381
v  -0.0789 27.3110 -5.7724
v  0.0398 53.6592 -4.7659
v  3.8842 27.3073 -3.3254
v  4.1661 53.6592 -1.7522
v  0.0398 53.6592 -1.2310
v  -0.0789 27.3059 -2.9157
v  4.2817 80.4888 -2.8736
v  5.9277 80.4888 -1.8256
v  0.1585 80.4888 -3.7852
v  4.3701 80.4888 -0.7715
v  0.1585 80.4888 -0.1054
v  4.5022 115.7066 -2.1094
v  5.3726 115.7066 -1.2958
v  -0.1589 115.7066 -2.5472
v  4.5906 115.7066 -0.3974
v  -0.1589 115.7066 0.0276
v  4.6900 119.2497 -2.4717
v  5.8589 119.2451 -1.5962
v  -0.1673 119.2532 -2.9749
v  4.7784 119.2473 -0.6180
v  -0.1673 119.2514 -0.0791
v  5.2605 127.1363 -4.2264
v  6.8297 127.1593 -2.5718
v  -0.1691 127.1321 -4.7513
v  5.3489 127.1358 -1.0261
v  -0.1691 127.1320 -0.4543
v  6.6385 131.7193 -2.5238
v  7.9040 131.7686 -1.7518
v  -0.1870 131.7094 -2.7820
v  6.7271 131.7180 -1.0338
v  -0.1881 131.7089 -0.7508
v  7.4955 135.7471 -1.8028
v  8.9649 135.4339 -1.2060
v  -0.2230 135.8724 -2.0395
v  7.5597 135.1406 -0.6422
v  -0.2207 135.0024 -0.3783
v  9.7288 139.6873 -1.6473
v  12.3053 140.0150 -0.9393
v  -0.2300 139.3626 -1.8922
v  9.8184 139.0214 -0.2755
v  -0.2339 138.4232 -0.0017
# 55 vertices

vn 0.9722 -0.2196 0.0809
vn 0.4761 -0.0371 -0.8786
vn 0.4561 -0.0262 -0.8895
vn 0.9814 -0.1921 0.0064
vn 0.2707 -0.0219 -0.9624
vn 0.3113 0.0144 -0.9502
vn 0.0974 -0.1516 0.9836
vn 0.3040 -0.1495 0.9409
vn 0.3701 -0.1387 0.9186
vn 0.1645 -0.1091 0.9803
vn 0.3789 0.0153 -0.9253
vn 0.3517 0.0337 -0.9355
vn 0.9998 -0.0147 -0.0122
vn 0.9950 -0.0987 -0.0117
vn 0.2025 0.0438 -0.9783
vn 0.2349 0.0353 -0.9714
vn 0.3419 -0.0886 0.9355
vn 0.3136 -0.0484 0.9483
vn 0.1251 -0.0530 0.9907
vn 0.1026 -0.0667 0.9925
vn 0.3825 0.0231 -0.9237
vn 0.9999 0.0092 -0.0083
vn 0.2158 0.0355 -0.9758
vn 0.3665 -0.0244 0.9301
vn 0.1562 -0.0221 0.9875
vn 0.4105 -0.0493 -0.9105
vn 0.9976 -0.0628 -0.0292
vn 0.0934 -0.0422 -0.9947
vn 0.4467 0.0102 0.8946
vn 0.0891 0.0137 0.9959
vn 0.3607 -0.1726 -0.9166
vn 0.9910 -0.1305 -0.0293
vn 0.1014 -0.1697 -0.9803
vn 0.4086 0.0266 0.9123
vn 0.1083 0.0387 0.9934
vn 0.3980 0.0025 -0.9174
vn 0.9826 -0.1735 -0.0666
vn 0.0958 0.0904 -0.9913
vn 0.4208 -0.0509 0.9057
vn 0.1029 0.0560 0.9931
vn 0.2935 0.1816 -0.9385
vn 0.9669 -0.2539 -0.0263
vn 0.0358 0.2878 -0.9570
vn 0.2956 -0.1358 0.9456
vn 0.0409 -0.0240 0.9989
vn 0.1902 0.0338 -0.9812
vn 0.8772 -0.4763 -0.0609
vn 0.0322 0.1085 -0.9936
vn 0.2078 -0.1765 0.9621
vn 0.0357 -0.1106 0.9932
vn 0.1986 -0.0740 -0.9773
vn 0.7542 -0.5272 -0.3914
vn 0.0232 0.0422 -0.9988
vn 0.2641 -0.2419 0.9337
vn 0.0336 -0.1093 0.9934
# 55 vertex normals

vt 0.7500 0.0000 1.0000
vt 0.8750 0.0000 1.0000
vt 0.8750 0.1596 1.0000
vt 0.7500 0.1600 1.0000
vt -0.1250 0.0000 1.0000
vt 0.0000 0.0000 1.0000
vt 0.0000 0.1596 1.0000
vt -0.1250 0.1596 1.0000
vt 0.5000 0.0000 1.0000
vt 0.6250 0.0000 1.0000
vt 0.6250 0.1599 1.0000
vt 0.5000 0.1597 1.0000
vt 0.8750 0.2223 1.0000
vt 0.8750 0.4000 1.0000
vt 0.7500 0.4000 1.0000
vt 0.7500 0.2223 1.0000
vt 0.0000 0.2223 1.0000
vt 0.0000 0.4000 1.0000
vt -0.1250 0.4000 1.0000
vt -0.1250 0.2223 1.0000
vt 0.6250 0.2223 1.0000
vt 0.6250 0.4000 1.0000
vt 0.5000 0.4000 1.0000
vt 0.5000 0.2223 1.0000
vt 0.8750 0.6000 1.0000
vt 0.7500 0.6000 1.0000
vt 0.0000 0.6000 1.0000
vt -0.1250 0.6000 1.0000
vt 0.6250 0.6000 1.0000
vt 0.5000 0.6000 1.0000
vt 0.8750 0.8000 1.0000
vt 0.7500 0.8000 1.0000
vt 0.0000 0.8000 1.0000
vt -0.1250 0.8000 1.0000
vt 0.6250 0.8000 1.0000
vt 0.5000 0.8000 1.0000
vt 0.8750 0.9486 1.0000
vt 0.7500 0.9485 1.0000
vt 0.0000 0.9487 1.0000
vt -0.1250 0.9486 1.0000
vt 0.6250 0.9485 1.0000
vt 0.5000 0.9487 1.0000
vt -0.1250 1.0000 1.0000
vt 0.8750 0.9810 1.0000
vt 0.7500 0.9811 1.0000
vt 0.0000 0.9810 1.0000
vt -0.1250 0.9810 1.0000
vt 0.6250 0.9810 1.0000
vt 0.5000 0.9810 1.0000
vt 0.8750 0.9889 1.0000
vt 0.7500 0.9890 1.0000
vt 0.0000 0.9889 1.0000
vt -0.1250 0.9889 1.0000
vt 0.6250 0.9889 1.0000
vt 0.5000 0.9889 1.0000
vt 0.8750 0.9968 1.0000
vt 0.7500 0.9964 1.0000
vt 0.0000 0.9969 1.0000
vt -0.1250 0.9968 1.0000
vt 0.6250 0.9959 1.0000
vt 0.5000 0.9957 1.0000
vt 0.8750 1.0000 1.0000
vt 0.7500 1.0000 1.0000
vt 0.0000 1.0000 1.0000
vt 0.6250 1.0000 1.0000
vt 0.5000 1.0000 1.0000
# 66 texture coords

o Cylinder001
g Cylinder001
usemtl wire_008008136
s 8
f 9/9/3 10/10/4 11/11/5 12/12/6 
f 10/13/4 13/14/7 14/15/8 11/16/5 
f 15/17/9 16/18/10 17/19/11 18/20/12 
f 16/18/10 9/9/3 12/12/6 17/19/11 
f 19/21/13 20/22/14 21/23/15 22/24/16 
f 23/25/17 24/26/18 20/27/14 19/28/13 
f 25/29/19 26/30/20 27/31/21 28/32/22 
f 22/24/16 21/23/15 26/30/20 25/29/19 
f 21/23/15 20/22/14 29/33/23 30/34/24 
f 20/27/14 24/26/18 31/35/25 29/36/23 
f 27/31/21 26/30/20 32/37/26 33/38/27 
f 26/30/20 21/23/15 30/34/24 32/37/26 
f 30/34/24 29/33/23 34/39/28 35/40/29 
f 29/36/23 31/35/25 36/41/30 34/42/28 
f 33/38/27 32/37/26 37/43/31 38/44/32 
f 32/37/26 30/34/24 35/40/29 37/43/31 
f 35/40/29 34/39/28 39/45/33 40/46/34 
f 34/42/28 36/41/30 41/47/35 39/48/33 
f 38/44/32 37/43/31 42/49/36 43/50/37 
f 37/43/31 35/40/29 40/46/34 42/49/36 
s 1
f 25/11/19 28/12/22 18/36/12 17/36/11 
f 22/42/16 25/11/19 17/36/11 12/13/6 
s 2
f 19/42/13 22/42/16 12/13/6 11/27/5 
f 23/51/17 19/42/13 11/27/5 14/27/8 
s off
f 39/45/33 44/52/38 45/53/39 40/46/34 
f 41/47/35 46/54/40 44/55/38 39/48/33 
f 42/49/36 47/56/41 48/57/42 43/50/37 
f 40/46/34 45/53/39 47/56/41 42/49/36 
f 44/52/38 49/58/43 50/59/44 45/53/39 
f 46/54/40 51/60/45 49/61/43 44/55/38 
f 47/56/41 52/62/46 53/63/47 48/57/42 
f 45/53/39 50/59/44 52/62/46 47/56/41 
f 49/58/43 54/64/48 55/65/49 50/59/44 
f 51/60/45 56/66/50 54/67/48 49/61/43 
f 52/62/46 57/68/51 58/69/52 53/63/47 
f 50/59/44 55/65/49 57/68/51 52/62/46 
f 54/64/48 59/70/53 60/71/54 55/65/49 
f 56/66/50 61/72/55 59/51/53 54/67/48 
f 57/68/51 62/73/56 63/74/57 58/69/52 
f 55/65/49 60/71/54 62/73/56 57/68/51 
# 40 polygons

