# 3ds Max Wavefront OBJ Exporter v0.97b - (c)2007 guruware
# File Created: 14.10.2017 19:33:50

mtllib 873455.mtl

#
# object Plane001
#

v  -70.4253 204.2065 -259.1703
v  -77.7289 2.7389 -259.1703
v  73.3718 -2.7389 -259.1703
v  80.6755 198.7288 -259.1703
# 4 vertices

vn 0.0138 0.9999 0.0000
# 1 vertex normals

vt 0.0000 1.0000 0.0000
vt 0.0000 0.0000 0.0000
vt 1.0000 0.0000 0.0000
vt 1.0000 1.0000 0.0000
# 4 texture coords

o Plane001
g Plane001
usemtl Material__27
s 1
f 1/1/1 2/2/1 3/3/1 4/4/1 
# 1 polygons

#
# object Plane002
#

v  -273.4635 206.4906 81.2852
v  -273.4635 -13.4000 81.2852
v  -273.4635 -13.4000 -83.6328
v  -273.4635 206.4906 -83.6328
# 4 vertices

vn 1.0000 -0.0000 -0.0000
# 1 vertex normals

vt 0.0000 1.0000 0.0000
vt 0.0000 0.0000 0.0000
vt 1.0000 0.0000 0.0000
vt 1.0000 1.0000 0.0000
# 4 texture coords

o Plane002
g Plane002
usemtl Material__28
s 1
f 5/5/2 6/6/2 7/7/2 8/8/2 
# 1 polygons

#
# object Cylinder001
#

v  1.3230 11.9956 -5.0299
v  0.9557 11.9956 -5.7406
v  2.2951 17.2843 -5.2445
v  3.3803 17.3111 -4.4526
v  -0.0000 11.9956 -6.3897
v  -0.0000 17.2825 -5.9982
v  0.0000 11.9956 -4.1919
v  0.7652 11.9956 -4.5664
v  2.3325 17.3094 -3.7320
v  0.0000 17.2885 -3.3420
v  3.7958 27.3109 -4.9704
v  4.0777 53.6592 -3.7893
v  5.9989 53.6592 -2.7860
v  5.1284 27.3095 -4.1381
v  0.0149 27.3110 -5.7724
v  0.1335 53.6592 -4.7659
v  3.8842 27.3073 -3.3254
v  4.1661 53.6592 -1.7522
v  0.1335 53.6592 -1.2310
v  0.0149 27.3059 -2.9157
v  4.2817 80.4888 -2.8736
v  5.9277 80.4888 -1.8256
v  0.2523 80.4888 -3.7852
v  4.3701 80.4888 -0.7715
v  0.2523 80.4888 -0.1054
v  4.5022 115.7066 -2.1562
v  5.3726 115.7066 -1.1651
v  0.3520 115.7066 -2.5940
v  4.5906 115.7066 -0.2667
v  0.3520 115.7066 0.1582
v  4.6900 122.4817 -2.7427
v  5.8589 122.4771 -1.2067
v  0.3436 122.4852 -3.2524
v  4.7784 122.4793 0.2229
v  0.3436 122.4834 0.7687
v  5.3886 133.5743 -2.9455
v  8.1522 133.5743 -1.2212
v  0.3407 133.5743 -3.4795
v  5.4770 133.5743 0.3925
v  0.3407 133.5743 0.9796
# 40 vertices

vn 0.9123 -0.3718 0.1719
vn 0.7178 -0.1174 -0.6863
vn 0.4616 -0.0406 -0.8862
vn 0.9662 -0.2571 0.0207
vn 0.5608 0.0611 -0.8257
vn 0.3116 0.0458 -0.9491
vn 0.4351 -0.1427 0.8890
vn 0.5119 -0.2786 0.8126
vn 0.3730 -0.1719 0.9118
vn 0.1650 -0.0992 0.9813
vn 0.3805 0.0023 -0.9248
vn 0.3542 0.0337 -0.9346
vn 0.9998 -0.0147 -0.0122
vn 0.9950 -0.0983 -0.0179
vn 0.2074 0.0290 -0.9778
vn 0.2402 0.0352 -0.9701
vn 0.3441 -0.0760 0.9358
vn 0.3150 -0.0484 0.9479
vn 0.1280 -0.0530 0.9904
vn 0.1052 -0.0532 0.9930
vn 0.3848 0.0225 -0.9227
vn 0.9999 0.0093 -0.0093
vn 0.2206 0.0335 -0.9748
vn 0.3682 -0.0262 0.9294
vn 0.1596 -0.0250 0.9869
vn 0.4625 -0.0375 -0.8858
vn 0.9996 -0.0285 0.0030
vn 0.1048 -0.0315 -0.9940
vn 0.4597 -0.0465 0.8869
vn 0.0996 -0.0486 0.9938
vn 0.4873 -0.0672 -0.8706
vn 0.9900 -0.1408 -0.0026
vn 0.1162 -0.0579 -0.9915
vn 0.4921 -0.0600 0.8685
vn 0.1219 -0.0537 0.9911
vn 0.3325 -0.0382 -0.9423
vn 0.9793 -0.2024 0.0061
vn 0.1052 -0.0203 -0.9942
vn 0.3292 -0.0352 0.9436
vn 0.1135 -0.0189 0.9934
# 40 vertex normals

vt 0.7500 0.0000 1.0000
vt 0.8750 0.0000 1.0000
vt 0.8750 0.1596 1.0000
vt 0.7500 0.1600 1.0000
vt -0.1250 0.0000 1.0000
vt 0.0000 0.0000 1.0000
vt 0.0000 0.1596 1.0000
vt -0.1250 0.1596 1.0000
vt 0.5000 0.0000 1.0000
vt 0.6250 0.0000 1.0000
vt 0.6250 0.1599 1.0000
vt 0.5000 0.1597 1.0000
vt 0.8750 0.2223 1.0000
vt 0.8750 0.4000 1.0000
vt 0.7500 0.4000 1.0000
vt 0.7500 0.2223 1.0000
vt 0.0000 0.2223 1.0000
vt 0.0000 0.4000 1.0000
vt -0.1250 0.4000 1.0000
vt -0.1250 0.2223 1.0000
vt 0.6250 0.2223 1.0000
vt 0.6250 0.4000 1.0000
vt 0.5000 0.4000 1.0000
vt 0.5000 0.2223 1.0000
vt 0.8750 0.6000 1.0000
vt 0.7500 0.6000 1.0000
vt 0.0000 0.6000 1.0000
vt -0.1250 0.6000 1.0000
vt 0.6250 0.6000 1.0000
vt 0.5000 0.6000 1.0000
vt 0.8750 0.8000 1.0000
vt 0.7500 0.8000 1.0000
vt 0.0000 0.8000 1.0000
vt -0.1250 0.8000 1.0000
vt 0.6250 0.8000 1.0000
vt 0.5000 0.8000 1.0000
vt 0.8750 0.9486 1.0000
vt 0.7500 0.9485 1.0000
vt 0.0000 0.9487 1.0000
vt -0.1250 0.9486 1.0000
vt 0.6250 0.9485 1.0000
vt 0.5000 0.9487 1.0000
vt -0.1250 1.0000 1.0000
vt 0.8750 1.0000 1.0000
vt 0.7500 1.0000 1.0000
vt 0.0000 1.0000 1.0000
vt 0.6250 1.0000 1.0000
vt 0.5000 1.0000 1.0000
# 48 texture coords

o Cylinder001
g Cylinder001
usemtl wire_008008136
s 8
f 9/9/3 10/10/4 11/11/5 12/12/6 
f 10/13/4 13/14/7 14/15/8 11/16/5 
f 15/17/9 16/18/10 17/19/11 18/20/12 
f 16/18/10 9/9/3 12/12/6 17/19/11 
f 19/21/13 20/22/14 21/23/15 22/24/16 
f 23/25/17 24/26/18 20/27/14 19/28/13 
f 25/29/19 26/30/20 27/31/21 28/32/22 
f 22/24/16 21/23/15 26/30/20 25/29/19 
f 21/23/15 20/22/14 29/33/23 30/34/24 
f 20/27/14 24/26/18 31/35/25 29/36/23 
f 27/31/21 26/30/20 32/37/26 33/38/27 
f 26/30/20 21/23/15 30/34/24 32/37/26 
f 30/34/24 29/33/23 34/39/28 35/40/29 
f 29/36/23 31/35/25 36/41/30 34/42/28 
f 33/38/27 32/37/26 37/43/31 38/44/32 
f 32/37/26 30/34/24 35/40/29 37/43/31 
f 35/40/29 34/39/28 39/45/33 40/46/34 
f 34/42/28 36/41/30 41/47/35 39/48/33 
f 38/44/32 37/43/31 42/49/36 43/50/37 
f 37/43/31 35/40/29 40/46/34 42/49/36 
s 1
f 25/11/19 28/12/22 18/36/12 17/36/11 
f 22/42/16 25/11/19 17/36/11 12/13/6 
s 2
f 19/42/13 22/42/16 12/13/6 11/27/5 
f 23/51/17 19/42/13 11/27/5 14/27/8 
s off
f 39/45/33 44/52/38 45/53/39 40/46/34 
f 41/47/35 46/54/40 44/51/38 39/48/33 
f 42/49/36 47/55/41 48/56/42 43/50/37 
f 40/46/34 45/53/39 47/55/41 42/49/36 
# 28 polygons

